<svg xmlns="http://www.w3.org/2000/svg" width="1200" height="630"><rect width="1200" height="630" rx="34" fill="#fbf6ee"/><rect x="12" y="12" width="1176" height="606" rx="28" fill="none" stroke="#c69652" stroke-width="2"/><path d="M565 95c-14 22-18 47-13 69 6 29 24 45 48 45s42-16 48-45c5-22 1-47-13-69l-20 13c9 14 12 33 9 48-3 18-10 26-24 26s-21-8-24-26c-3-15 0-34 9-48l-20-13Z" fill="#c69652"/><text x="600" y="350" font-size="96" text-anchor="middle" fill="#17130f" font-family="Georgia,serif" font-weight="600">Quizz Galop</text><line x1="360" y1="400" x2="530" y2="400" stroke="#c69652"/><circle cx="600" cy="400" r="6" fill="#c69652"/><line x1="670" y1="400" x2="840" y2="400" stroke="#c69652"/><text x="600" y="474" font-size="30" letter-spacing="5" text-anchor="middle" fill="#174d3b" font-family="Arial,sans-serif">GALOPS 1 À 7</text><text x="600" y="530" font-size="24" text-anchor="middle" fill="#665b50" font-family="Arial,sans-serif">Fiches, quiz et examens chronométrés</text></svg>